<svg xmlns="http://www.w3.org/2000/svg" xmlns:xlink="http://www.w3.org/1999/xlink" width="60" height="60" viewBox="0 0 60 60">
  <defs>
    <clipPath id="clip-BNB">
      <rect width="60" height="60"/>
    </clipPath>
  </defs>
  <g id="BNB" clip-path="url(#clip-BNB)">
    <g id="Grupo_154" data-name="Grupo 154" transform="translate(-219.344 -244.689)">
      <path id="Trazado_1046" data-name="Trazado 1046" d="M219.344,276.469v-3.723c.119-.744.248-1.486.356-2.231a29.963,29.963,0,0,1,52.952-14.694,29.362,29.362,0,0,1,5.952,25.2,28.971,28.971,0,0,1-10.109,16.649,29.321,29.321,0,0,1-16.5,6.782c-.591.053-1.178.157-1.767.237h-1.683c-.231-.048-.461-.11-.695-.142-1.622-.222-3.27-.327-4.865-.674a29.913,29.913,0,0,1-23.281-25.047C219.6,278.039,219.466,277.255,219.344,276.469Zm39.331,2.1-9.371,9.333-9.29-9.3-5.325,5.341L249.4,298.65,264.1,283.986Zm-18.666-7.839,9.374-9.378,9.325,9.319,5.333-5.336L249.32,250.653l-14.706,14.688Zm9.293,9.905,6.044-6.037-5.939-5.848-6.017,5.97ZM235.916,274.7l-5.322-5.323-5.218,5.215,5.322,5.318Zm37.531.01-5.373-5.382-5.249,5.27,5.364,5.364Z" fill="#e2bd00"/>
      <path id="Trazado_1047" data-name="Trazado 1047" d="M370.786,526.317l5.423,5.416-14.694,14.673L346.8,531.69l5.325-5.344,9.29,9.31Z" transform="translate(-112.111 -247.76)" fill="#0a0314"/>
      <path id="Trazado_1048" data-name="Trazado 1048" d="M351.575,314.349l-5.4-5.4,14.706-14.7,14.721,14.7-5.333,5.339-9.325-9.324Z" transform="translate(-111.566 -43.598)" fill="#0a0314"/>
      <path id="Trazado_1049" data-name="Trazado 1049" d="M424.987,456.606l-5.912-5.918,6.018-5.974,5.939,5.851Z" transform="translate(-175.685 -175.962)" fill="#0a0314"/>
      <path id="Trazado_1050" data-name="Trazado 1050" d="M279.989,455.177l-5.217,5.213-5.322-5.321,5.218-5.218Z" transform="translate(-44.073 -180.481)" fill="#0a0314"/>
      <path id="Trazado_1051" data-name="Trazado 1051" d="M591.131,454.829l-5.258,5.255-5.365-5.367,5.249-5.273Z" transform="translate(-317.684 -180.123)" fill="#0a0314"/>
    </g>
  </g>
</svg>
