<?xml version="1.0" encoding="UTF-8" standalone="no"?>
<svg
   version="1.1"
   id="svg2"
   xml:space="preserve"
   width="293.68512"
   height="293.70157"
   viewBox="0 0 293.68512 293.70157"
   sodipodi:docname="Bitcoin Logo PNG.svg"
   inkscape:version="1.1.1 (3bf5ae0d25, 2021-09-20)"
   xmlns:inkscape="http://www.inkscape.org/namespaces/inkscape"
   xmlns:sodipodi="http://sodipodi.sourceforge.net/DTD/sodipodi-0.dtd"
   xmlns="http://www.w3.org/2000/svg"
   xmlns:svg="http://www.w3.org/2000/svg"
   xmlns:rdf="http://www.w3.org/1999/02/22-rdf-syntax-ns#"
   xmlns:cc="http://creativecommons.org/ns#"
   xmlns:dc="http://purl.org/dc/elements/1.1/"><metadata
     id="metadata8"><rdf:RDF><cc:Work
         rdf:about=""><dc:format>image/svg+xml</dc:format><dc:type
           rdf:resource="http://purl.org/dc/dcmitype/StillImage" /></cc:Work></rdf:RDF></metadata><defs
     id="defs6"><clipPath
       clipPathUnits="userSpaceOnUse"
       id="clipPath20"><path
         d="M 0,320 H 420 V 0 H 0 Z"
         id="path18" /></clipPath></defs><sodipodi:namedview
     pagecolor="#ffffff"
     bordercolor="#666666"
     borderopacity="1"
     objecttolerance="10"
     gridtolerance="10"
     guidetolerance="10"
     inkscape:pageopacity="0"
     inkscape:pageshadow="2"
     inkscape:window-width="1280"
     inkscape:window-height="668"
     id="namedview4"
     inkscape:pagecheckerboard="0"
     showgrid="false"
     fit-margin-top="0"
     fit-margin-left="0"
     fit-margin-right="0"
     fit-margin-bottom="0"
     inkscape:zoom="1.1789063"
     inkscape:cx="55.984094"
     inkscape:cy="164.98343"
     inkscape:window-x="0"
     inkscape:window-y="0"
     inkscape:window-maximized="1"
     inkscape:current-layer="g10" /><g
     id="g10"
     inkscape:groupmode="layer"
     inkscape:label="Bitcoin Logo PNG"
     transform="matrix(1.3333333,0,0,-1.3333333,-133.15731,395.54705)"><g
       id="g1189"><g
         id="g22"
         transform="translate(201.7517,284.5198)"><path
           d="m 0,0 c -12.635,-1.036 -25.07,-4.549 -36.354,-10.329 -19.395,-9.809 -35.303,-26.284 -44.496,-45.972 -9.631,-20.403 -11.793,-44.157 -6.227,-66.004 5.578,-22.135 19.208,-42.104 37.739,-55.419 11,-7.989 23.697,-13.627 36.996,-16.459 14.582,-3.092 29.865,-2.855 44.338,0.73 11.278,2.795 22.05,7.624 31.64,14.182 16.469,11.2 29.403,27.522 36.488,46.14 9.777,25.307 8.408,54.68 -3.803,78.92 C 85.755,-32.826 67.114,-15.58 44.958,-6.732 30.776,-1.005 15.237,1.282 0,0 m 4.574,3.925 c 15.196,0.552 30.513,-2.309 44.434,-8.442 20.621,-8.982 38.06,-25.002 48.804,-44.756 6.496,-11.836 10.554,-24.995 11.905,-38.428 1.379,-13.883 -0.034,-28.062 -4.324,-41.349 -6.32,-19.851 -18.955,-37.602 -35.558,-50.171 -8.13,-6.193 -17.193,-11.163 -26.802,-14.644 -24.296,-8.929 -52.018,-8.046 -75.684,2.452 -21.863,9.543 -40.101,27.032 -50.623,48.433 -6.973,14.117 -10.614,29.872 -10.442,45.62 0.003,11.69 2.152,23.364 6.155,34.339 6.604,18.085 18.481,34.179 33.746,45.9 16.647,12.859 37.355,20.375 58.389,21.046"
           style="fill:#ffffff;fill-opacity:1;fill-rule:nonzero;stroke:none"
           id="path24" /></g><g
         id="g26"
         transform="translate(201.8702,178.8458)"><path
           d="m 0,0 c 0.012,-10.595 -0.062,-21.192 0.041,-31.787 6.42,0.088 12.934,-0.415 19.261,0.955 2.782,0.633 5.656,1.681 7.581,3.893 2.109,2.381 2.87,5.613 3.088,8.711 0.231,3.852 -0.097,7.939 -2.053,11.352 -1.734,3.033 -4.994,4.792 -8.273,5.672 C 13.243,0.524 6.548,-0.053 0,0 M 0.047,47.083 C -0.05,38.126 -0.022,29.169 0.034,20.213 c 4.24,0.021 8.486,-0.138 12.719,0.146 3.401,0.365 6.979,1.07 9.725,3.239 2.857,2.296 3.743,6.155 3.865,9.649 0.093,3.484 -0.409,7.381 -3.014,9.942 -2.283,2.253 -5.584,2.98 -8.651,3.441 C 9.83,47.301 4.923,46.977 0.047,47.083 M -20.15,82.189 c 6.713,0.009 13.424,-0.038 20.138,0.022 0.024,-4.995 -0.025,-9.99 0.024,-14.984 3.139,-0.028 6.274,-0.013 9.41,-0.013 0.006,4.989 0,9.98 0.006,14.969 6.717,0.009 13.433,-0.007 20.15,0.009 -0.031,-5.322 0.034,-10.644 -0.034,-15.967 3.082,-0.508 6.22,-0.898 9.153,-2.043 5.531,-2.05 10.086,-6.158 13.437,-10.941 C 55.55,48.327 57.3,42.347 57.3,36.379 57.403,31.241 56.298,25.956 53.456,21.61 50.48,16.862 45.673,13.577 40.619,11.356 46.306,9.191 51.815,6.049 55.743,1.304 c 3.681,-4.29 5.65,-9.865 6.071,-15.461 0.446,-5.759 -0.315,-11.69 -2.692,-16.984 -2.602,-5.718 -6.957,-10.601 -12.267,-13.939 -5.194,-3.266 -11.256,-4.82 -17.286,-5.59 0,-5.382 0.012,-10.763 -0.007,-16.148 -6.716,-0.047 -13.43,-0.006 -20.147,-0.019 0.007,4.961 0.038,9.921 -0.015,14.878 -3.123,-0.009 -6.246,0.013 -9.366,-0.009 -0.09,-4.951 -0.018,-9.908 -0.04,-14.862 -6.714,-0.007 -13.427,-0.025 -20.141,0.009 -0.003,4.954 0.012,9.905 -0.006,14.859 -8.517,0.059 -17.04,-0.106 -25.551,0.081 0.038,6.698 -0.006,13.393 0.022,20.091 4.889,-0.012 9.774,0.003 14.663,-0.006 -0.013,26.29 0,52.583 -0.007,78.872 -4.891,-0.003 -9.78,-0.062 -14.668,0.032 0.003,6.701 0.018,13.399 -0.007,20.1 8.517,0.016 17.034,-0.019 25.554,0.016 -0.003,4.988 0.006,9.976 -0.003,14.965"
           style="fill:#ffffff;fill-opacity:1;fill-rule:nonzero;stroke:none"
           id="path28" /></g><g
         id="g30"
         transform="translate(206.3252,288.4444)"><path
           d="m 0,0 c -21.033,-0.671 -41.742,-8.186 -58.389,-21.046 -15.264,-11.72 -27.141,-27.815 -33.745,-45.9 -4.003,-10.975 -6.153,-22.649 -6.156,-34.339 -0.171,-15.748 3.469,-31.502 10.442,-45.619 10.523,-21.401 28.761,-38.891 50.624,-48.434 23.666,-10.498 51.387,-11.38 75.684,-2.452 9.609,3.482 18.671,8.451 26.801,14.644 16.603,12.569 29.238,30.321 35.559,50.171 4.289,13.287 5.703,27.466 4.324,41.349 -1.351,13.434 -5.41,26.592 -11.905,38.429 C 82.495,-33.443 65.055,-17.424 44.434,-8.442 30.514,-2.309 15.196,0.552 0,0 m -3.978,7.962 c 15.674,1.054 31.587,-1.17 46.288,-6.739 22.203,-8.292 41.529,-24 54.239,-44.001 6.411,-10.004 11.178,-21.064 14.032,-32.597 6.446,-25.863 3.182,-54.074 -9.353,-77.631 -8.975,-17.159 -22.583,-31.849 -38.977,-42.151 -9.138,-5.781 -19.146,-10.186 -29.578,-13.031 -25.326,-6.966 -53.138,-4.48 -76.77,7.026 -20.89,10.067 -38.457,26.879 -49.36,47.354 -6.274,11.636 -10.386,24.427 -12.083,37.539 -1.616,12.666 -1.114,25.619 1.644,38.092 5.138,23.557 18.372,45.22 36.881,60.657 17.617,14.874 40.026,23.95 63.037,25.482"
           style="fill:#f99b1c;fill-opacity:1;fill-rule:nonzero;stroke:none"
           id="path32" /></g><g
         id="g34"
         transform="translate(181.72,261.0346)"><path
           d="m 0,0 c 0.009,-4.988 0,-9.977 0.003,-14.965 -8.52,-0.035 -17.037,0 -25.553,-0.016 0.025,-6.701 0.009,-13.399 0.006,-20.1 4.888,-0.094 9.777,-0.034 14.669,-0.031 0.006,-26.29 -0.007,-52.583 0.006,-78.873 -4.889,0.009 -9.774,-0.006 -14.663,0.006 -0.028,-6.698 0.016,-13.393 -0.022,-20.091 8.511,-0.187 17.034,-0.022 25.551,-0.081 0.019,-4.954 0.003,-9.905 0.006,-14.859 6.714,-0.034 13.427,-0.016 20.141,-0.009 0.022,4.954 -0.05,9.911 0.041,14.862 3.119,0.022 6.242,0 9.365,0.009 0.053,-4.957 0.022,-9.917 0.016,-14.878 6.716,0.013 13.43,-0.028 20.147,0.019 0.018,5.385 0.006,10.766 0.006,16.148 6.03,0.77 12.092,2.324 17.286,5.59 5.31,3.338 9.665,8.221 12.267,13.939 2.377,5.294 3.138,11.225 2.692,16.984 -0.421,5.597 -2.389,11.172 -6.071,15.461 -3.927,4.745 -9.437,7.887 -15.124,10.052 5.054,2.221 9.861,5.506 12.838,10.254 2.842,4.346 3.946,9.631 3.843,14.769 0,5.968 -1.75,11.949 -5.166,16.862 -3.351,4.783 -7.906,8.891 -13.437,10.941 -2.932,1.145 -6.071,1.535 -9.153,2.043 0.069,5.323 0.003,10.645 0.034,15.967 -6.717,-0.015 -13.433,0 -20.15,-0.009 -0.006,-4.989 0,-9.98 -0.006,-14.969 -3.136,0 -6.271,-0.015 -9.409,0.013 -0.05,4.995 0,9.989 -0.025,14.984 C 13.424,-0.037 6.714,0.009 0,0 m 20.032,23.485 c 15.236,1.282 30.776,-1.004 44.958,-6.732 22.156,-8.848 40.796,-26.093 51.363,-47.479 12.21,-24.24 13.58,-53.612 3.803,-78.919 -7.085,-18.619 -20.019,-34.941 -36.488,-46.141 -9.59,-6.558 -20.363,-11.387 -31.641,-14.182 -14.472,-3.585 -29.755,-3.822 -44.337,-0.73 -13.299,2.832 -25.996,8.47 -36.997,16.459 -18.531,13.315 -32.161,33.285 -37.739,55.419 -5.565,21.847 -3.403,45.601 6.227,66.004 9.194,19.688 25.101,36.163 44.497,45.972 11.284,5.781 23.719,9.293 36.354,10.329"
           style="fill:#f99b1c;fill-opacity:1;fill-rule:nonzero;stroke:none"
           id="path36" /></g><g
         id="g38"
         transform="translate(201.917,225.9285)"><path
           d="m 0,0 c 4.876,-0.106 9.783,0.218 14.631,-0.452 3.067,-0.462 6.368,-1.189 8.651,-3.441 2.605,-2.562 3.108,-6.458 3.014,-9.943 -0.122,-3.494 -1.008,-7.353 -3.865,-9.649 -2.746,-2.168 -6.324,-2.873 -9.724,-3.238 C 8.473,-27.007 4.227,-26.848 -0.012,-26.87 -0.069,-17.913 -0.097,-8.957 0,0"
           style="fill:#f99b1c;fill-opacity:1;fill-rule:nonzero;stroke:none"
           id="path40" /></g><g
         id="g42"
         transform="translate(201.8702,178.8458)"><path
           d="m 0,0 c 6.548,-0.053 13.243,0.524 19.645,-1.204 3.279,-0.88 6.539,-2.639 8.273,-5.672 1.956,-3.413 2.284,-7.5 2.053,-11.352 -0.218,-3.098 -0.979,-6.33 -3.088,-8.711 -1.925,-2.212 -4.799,-3.26 -7.581,-3.893 C 12.975,-32.202 6.461,-31.699 0.041,-31.787 -0.062,-21.192 0.012,-10.595 0,0"
           style="fill:#f99b1c;fill-opacity:1;fill-rule:nonzero;stroke:none"
           id="path44" /></g></g></g></svg>
